<?xml version="1.0" encoding="UTF-8"?>
<!DOCTYPE svg PUBLIC "-//W3C//DTD SVG 1.1//EN" "http://www.w3.org/Graphics/SVG/1.1/DTD/svg11.dtd">
<!-- Creator: CorelDRAW X7 -->
<svg xmlns="http://www.w3.org/2000/svg" xml:space="preserve" width="145.144mm" height="30.3807mm" version="1.1" style="shape-rendering:geometricPrecision; text-rendering:geometricPrecision; image-rendering:optimizeQuality; fill-rule:evenodd; clip-rule:evenodd"
viewBox="0 0 14514 3038"
 xmlns:xlink="http://www.w3.org/1999/xlink">
 <defs>
  <style type="text/css">
   <![CDATA[
    .fil2 {fill:#D83135}
    .fil3 {fill:#3B598D}
    .fil1 {fill:#D2D3D5;fill-rule:nonzero}
    .fil0 {fill:#3B598D;fill-rule:nonzero}
   ]]>
  </style>
 </defs>
 <g id="Capa_x0020_1">
  <metadata id="CorelCorpID_0Corel-Layer"/>
  <g id="_1076819440">
   <path class="fil0" d="M1696 2129c0,-291 86,-511 256,-661 171,-150 404,-225 697,-225l639 0c100,0 183,-34 249,-104 66,-69 99,-154 99,-254 0,-93 -34,-175 -102,-246 -67,-71 -148,-107 -242,-107l-975 0 -621 0 -370 0c-233,0 -421,61 -564,182 -144,121 -220,297 -230,529l893 0 0 532 -893 0 0 1263 -532 0 0 -1722c0,-203 28,-386 85,-547 56,-161 140,-299 251,-413 111,-115 251,-203 419,-264 167,-61 363,-92 585,-92l356 0 621 0 893 0c168,0 312,23 433,70 121,47 220,111 298,194 77,82 134,177 171,285 38,108 56,223 56,346 0,106 -17,212 -51,317 -34,105 -89,199 -167,283 -77,84 -176,151 -297,203 -121,52 -269,77 -443,77l-653 0c-93,0 -172,37 -234,109 -63,73 -95,158 -95,254l0 900 -532 0 0 -909z"/>
   <path class="fil1" d="M10646 2293c0,113 -20,215 -61,307 -40,92 -96,170 -167,235 -71,64 -154,114 -249,150 -95,35 -197,53 -307,53 -155,0 -295,-42 -421,-126 -126,-84 -213,-200 -261,-348l-610 -1838c-19,-62 -42,-108 -70,-141 -27,-32 -65,-48 -113,-48 -152,0 -228,89 -228,266l0 2235 -566 0 0 -2293c0,-113 20,-215 61,-307 40,-92 96,-170 167,-235 71,-64 154,-114 249,-150 95,-35 197,-53 307,-53 155,0 294,43 418,128 125,86 211,201 259,346l615 1838c19,62 42,108 70,141 27,32 65,48 113,48 152,0 228,-89 228,-266l0 -2235 566 0 0 2293z"/>
   <path class="fil1" d="M7158 1887c0,174 -27,331 -80,471 -53,141 -132,262 -237,363 -105,102 -237,180 -397,235 -159,55 -346,82 -559,82 -206,0 -389,-28 -549,-85 -159,-56 -293,-134 -401,-234 -108,-100 -190,-220 -247,-361 -56,-140 -84,-296 -84,-466l0 -1892 532 0 0 1882c0,184 67,334 200,450 134,116 319,174 554,174l15 0c242,0 422,-58 542,-174 119,-116 179,-266 179,-450l0 -1882 532 0 0 1887z"/>
   <path class="fil1" d="M11081 1151c0,-174 27,-331 80,-471 53,-141 132,-262 237,-363 105,-102 237,-180 397,-235 159,-55 346,-82 558,-82 207,0 390,28 550,85 159,56 293,134 401,234 108,100 190,220 247,361 56,140 84,296 84,467l0 1891 -532 0 0 -1882c0,-184 -67,-334 -200,-450 -134,-116 -319,-174 -554,-174l-15 0c-242,0 -422,58 -542,174 -119,116 -179,266 -179,450l0 1882 -532 0 0 -1887z"/>
   <path class="fil2" d="M10766 2355c174,0 3989,-2017 3034,-1647 -956,370 -1960,895 -3034,1647z"/>
   <path class="fil3" d="M11330 2386c174,0 3989,-2018 3033,-1648 -955,370 -1959,896 -3033,1648z"/>
  </g>
 </g>
</svg>
